<mxfile host="Electron" agent="Mozilla/5.0 (Macintosh; Intel Mac OS X 10_15_7) AppleWebKit/537.36 (KHTML, like Gecko) draw.io/25.0.2 Chrome/128.0.6613.186 Electron/32.2.5 Safari/537.36" version="25.0.2">
  <diagram name="Page-1" id="HgYtzdL3zzfatwmE_20L">
    <mxGraphModel dx="1011" dy="858" grid="1" gridSize="10" guides="1" tooltips="1" connect="1" arrows="1" fold="1" page="1" pageScale="1" pageWidth="827" pageHeight="1169" math="0" shadow="0">
      <root>
        <mxCell id="0" />
        <mxCell id="1" parent="0" />
        <mxCell id="ElBBtvMuGdLbJ0haY5PQ-1" value=":Chirp.Web" style="shape=umlLifeline;perimeter=lifelinePerimeter;whiteSpace=wrap;html=1;container=1;collapsible=0;recursiveResize=0;outlineConnect=0;rounded=1;shadow=0;comic=0;labelBackgroundColor=none;strokeWidth=1;fontFamily=Verdana;fontSize=12;align=center;" parent="1" vertex="1">
          <mxGeometry x="290" y="80" width="90" height="580" as="geometry" />
        </mxCell>
        <mxCell id="ElBBtvMuGdLbJ0haY5PQ-2" value="" style="html=1;points=[];perimeter=orthogonalPerimeter;rounded=0;shadow=0;comic=0;labelBackgroundColor=none;strokeWidth=1;fontFamily=Verdana;fontSize=12;align=center;" parent="ElBBtvMuGdLbJ0haY5PQ-1" vertex="1">
          <mxGeometry x="40" y="95" width="10" height="410" as="geometry" />
        </mxCell>
        <mxCell id="ElBBtvMuGdLbJ0haY5PQ-4" value=":ICheepService" style="shape=umlLifeline;perimeter=lifelinePerimeter;whiteSpace=wrap;html=1;container=1;collapsible=0;recursiveResize=0;outlineConnect=0;rounded=1;shadow=0;comic=0;labelBackgroundColor=none;strokeWidth=1;fontFamily=Verdana;fontSize=12;align=center;" parent="1" vertex="1">
          <mxGeometry x="410" y="80" width="144" height="600" as="geometry" />
        </mxCell>
        <mxCell id="ElBBtvMuGdLbJ0haY5PQ-5" value="" style="html=1;points=[];perimeter=orthogonalPerimeter;rounded=0;shadow=0;comic=0;labelBackgroundColor=none;strokeWidth=1;fontFamily=Verdana;fontSize=12;align=center;" parent="ElBBtvMuGdLbJ0haY5PQ-4" vertex="1">
          <mxGeometry x="65" y="130" width="10" height="190" as="geometry" />
        </mxCell>
        <mxCell id="ElBBtvMuGdLbJ0haY5PQ-19" value="&lt;font style=&quot;font-size: 9px;&quot;&gt;GetCheepAsync()&lt;/font&gt;" style="text;html=1;align=center;verticalAlign=middle;whiteSpace=wrap;rounded=0;" parent="ElBBtvMuGdLbJ0haY5PQ-4" vertex="1">
          <mxGeometry x="-40" y="110" width="80" height="20" as="geometry" />
        </mxCell>
        <mxCell id="ElBBtvMuGdLbJ0haY5PQ-30" value="" style="endArrow=classic;html=1;rounded=0;entryX=-0.04;entryY=0.003;entryDx=0;entryDy=0;entryPerimeter=0;" parent="ElBBtvMuGdLbJ0haY5PQ-4" target="ElBBtvMuGdLbJ0haY5PQ-23" edge="1">
          <mxGeometry width="50" height="50" relative="1" as="geometry">
            <mxPoint x="74.99912280701756" y="150.00000000000006" as="sourcePoint" />
            <mxPoint x="237.85000000000002" y="150" as="targetPoint" />
            <Array as="points">
              <mxPoint x="162.85000000000002" y="150" />
              <mxPoint x="187.85000000000002" y="150" />
            </Array>
          </mxGeometry>
        </mxCell>
        <mxCell id="ElBBtvMuGdLbJ0haY5PQ-32" value="" style="html=1;verticalAlign=bottom;endArrow=open;dashed=1;endSize=6;curved=0;rounded=0;" parent="ElBBtvMuGdLbJ0haY5PQ-4" edge="1">
          <mxGeometry relative="1" as="geometry">
            <mxPoint x="240" y="280" as="sourcePoint" />
            <mxPoint x="80" y="280" as="targetPoint" />
            <Array as="points" />
          </mxGeometry>
        </mxCell>
        <mxCell id="ElBBtvMuGdLbJ0haY5PQ-8" value="" style="shape=umlLifeline;perimeter=lifelinePerimeter;whiteSpace=wrap;html=1;container=1;collapsible=0;recursiveResize=0;outlineConnect=0;rounded=1;shadow=0;comic=0;labelBackgroundColor=none;strokeWidth=1;fontFamily=Verdana;fontSize=12;align=center;" parent="1" vertex="1">
          <mxGeometry x="780" y="90" width="90" height="580" as="geometry" />
        </mxCell>
        <mxCell id="ElBBtvMuGdLbJ0haY5PQ-9" value="" style="html=1;points=[];perimeter=orthogonalPerimeter;rounded=0;shadow=0;comic=0;labelBackgroundColor=none;strokeWidth=1;fontFamily=Verdana;fontSize=12;align=center;" parent="ElBBtvMuGdLbJ0haY5PQ-8" vertex="1">
          <mxGeometry x="40" y="170" width="10" height="60" as="geometry" />
        </mxCell>
        <mxCell id="ElBBtvMuGdLbJ0haY5PQ-17" value="" style="html=1;verticalAlign=bottom;endArrow=open;dashed=1;endSize=6;curved=0;rounded=0;exitX=-0.264;exitY=0.303;exitDx=0;exitDy=0;exitPerimeter=0;entryX=1.013;entryY=0.692;entryDx=0;entryDy=0;entryPerimeter=0;" parent="ElBBtvMuGdLbJ0haY5PQ-8" target="ElBBtvMuGdLbJ0haY5PQ-23" edge="1">
          <mxGeometry relative="1" as="geometry">
            <mxPoint x="38.68000000000012" y="229.87999999999997" as="sourcePoint" />
            <mxPoint x="-120" y="230" as="targetPoint" />
            <Array as="points" />
          </mxGeometry>
        </mxCell>
        <mxCell id="ElBBtvMuGdLbJ0haY5PQ-10" value="" style="endArrow=classic;html=1;rounded=0;exitX=1.163;exitY=0.229;exitDx=0;exitDy=0;exitPerimeter=0;" parent="ElBBtvMuGdLbJ0haY5PQ-8" source="ElBBtvMuGdLbJ0haY5PQ-23" edge="1">
          <mxGeometry width="50" height="50" relative="1" as="geometry">
            <mxPoint x="-135.5" y="170" as="sourcePoint" />
            <mxPoint x="40" y="170" as="targetPoint" />
            <Array as="points">
              <mxPoint x="-69.5" y="170" />
            </Array>
          </mxGeometry>
        </mxCell>
        <mxCell id="ElBBtvMuGdLbJ0haY5PQ-38" value="&lt;span style=&quot;background-color: rgb(255, 255, 255);&quot;&gt;Database&lt;/span&gt;" style="shape=cylinder3;whiteSpace=wrap;html=1;boundedLbl=1;backgroundOutline=1;size=15;" parent="ElBBtvMuGdLbJ0haY5PQ-8" vertex="1">
          <mxGeometry y="-40" width="90" height="90" as="geometry" />
        </mxCell>
        <mxCell id="ElBBtvMuGdLbJ0haY5PQ-11" value=":Client" style="shape=umlLifeline;perimeter=lifelinePerimeter;whiteSpace=wrap;html=1;container=1;collapsible=0;recursiveResize=0;outlineConnect=0;rounded=1;shadow=0;comic=0;labelBackgroundColor=none;strokeWidth=1;fontFamily=Verdana;fontSize=12;align=center;" parent="1" vertex="1">
          <mxGeometry x="160" y="80" width="70" height="580" as="geometry" />
        </mxCell>
        <mxCell id="ElBBtvMuGdLbJ0haY5PQ-12" value="" style="html=1;points=[];perimeter=orthogonalPerimeter;rounded=0;shadow=0;comic=0;labelBackgroundColor=none;strokeWidth=1;fontFamily=Verdana;fontSize=12;align=center;" parent="ElBBtvMuGdLbJ0haY5PQ-11" vertex="1">
          <mxGeometry x="30" y="80" width="10" height="460" as="geometry" />
        </mxCell>
        <mxCell id="ElBBtvMuGdLbJ0haY5PQ-13" value="" style="endArrow=classic;html=1;rounded=0;entryX=-0.116;entryY=0.001;entryDx=0;entryDy=0;entryPerimeter=0;exitX=1.134;exitY=0.034;exitDx=0;exitDy=0;exitPerimeter=0;" parent="1" source="ElBBtvMuGdLbJ0haY5PQ-12" target="ElBBtvMuGdLbJ0haY5PQ-2" edge="1">
          <mxGeometry width="50" height="50" relative="1" as="geometry">
            <mxPoint x="200" y="183" as="sourcePoint" />
            <mxPoint x="270" y="200" as="targetPoint" />
          </mxGeometry>
        </mxCell>
        <mxCell id="ElBBtvMuGdLbJ0haY5PQ-14" value="GET Request" style="text;html=1;align=center;verticalAlign=middle;whiteSpace=wrap;rounded=0;" parent="1" vertex="1">
          <mxGeometry x="220" y="150" width="80" height="20" as="geometry" />
        </mxCell>
        <mxCell id="ElBBtvMuGdLbJ0haY5PQ-18" value="" style="endArrow=classic;html=1;rounded=0;entryX=0.013;entryY=0.001;entryDx=0;entryDy=0;entryPerimeter=0;" parent="1" target="ElBBtvMuGdLbJ0haY5PQ-5" edge="1">
          <mxGeometry width="50" height="50" relative="1" as="geometry">
            <mxPoint x="340" y="210" as="sourcePoint" />
            <mxPoint x="470" y="210" as="targetPoint" />
            <Array as="points">
              <mxPoint x="381.5" y="210" />
            </Array>
          </mxGeometry>
        </mxCell>
        <mxCell id="ElBBtvMuGdLbJ0haY5PQ-20" value="" style="html=1;verticalAlign=bottom;endArrow=open;dashed=1;endSize=5;curved=0;rounded=0;" parent="1" edge="1">
          <mxGeometry x="-1" y="-376" relative="1" as="geometry">
            <mxPoint x="470" y="400" as="sourcePoint" />
            <mxPoint x="340" y="400" as="targetPoint" />
            <Array as="points">
              <mxPoint x="390.97" y="400" />
            </Array>
            <mxPoint x="345" y="226" as="offset" />
          </mxGeometry>
        </mxCell>
        <mxCell id="ElBBtvMuGdLbJ0haY5PQ-6" value="&lt;font size=&quot;1&quot;&gt;SQL Lite Query&lt;/font&gt;" style="text;html=1;align=center;verticalAlign=middle;whiteSpace=wrap;rounded=0;" parent="1" vertex="1">
          <mxGeometry x="710" y="240" width="80" height="20" as="geometry" />
        </mxCell>
        <mxCell id="ElBBtvMuGdLbJ0haY5PQ-24" value="&lt;font style=&quot;font-size: 9px;&quot;&gt;ReadCheeps()&lt;/font&gt;" style="text;html=1;align=center;verticalAlign=middle;whiteSpace=wrap;rounded=0;" parent="1" vertex="1">
          <mxGeometry x="544" y="210" width="50" height="20" as="geometry" />
        </mxCell>
        <mxCell id="ElBBtvMuGdLbJ0haY5PQ-22" value=":ICheepRepository" style="shape=umlLifeline;perimeter=lifelinePerimeter;whiteSpace=wrap;html=1;container=1;collapsible=0;recursiveResize=0;outlineConnect=0;rounded=1;shadow=0;comic=0;labelBackgroundColor=none;strokeWidth=1;fontFamily=Verdana;fontSize=12;align=center;" parent="1" vertex="1">
          <mxGeometry x="590" y="80" width="140" height="580" as="geometry" />
        </mxCell>
        <mxCell id="ElBBtvMuGdLbJ0haY5PQ-23" value="" style="html=1;points=[];perimeter=orthogonalPerimeter;rounded=0;shadow=0;comic=0;labelBackgroundColor=none;strokeWidth=1;fontFamily=Verdana;fontSize=12;align=center;" parent="ElBBtvMuGdLbJ0haY5PQ-22" vertex="1">
          <mxGeometry x="65" y="150" width="10" height="130" as="geometry" />
        </mxCell>
        <mxCell id="ElBBtvMuGdLbJ0haY5PQ-7" value="&lt;font style=&quot;font-size: 8px;&quot;&gt;&amp;lt;IEnumerable&amp;lt;CheepDTO&amp;gt;&amp;gt;&lt;/font&gt;" style="text;html=1;align=center;verticalAlign=middle;whiteSpace=wrap;rounded=0;" parent="1" vertex="1">
          <mxGeometry x="390" y="380" width="40" height="20" as="geometry" />
        </mxCell>
        <mxCell id="ElBBtvMuGdLbJ0haY5PQ-3" value="" style="html=1;verticalAlign=bottom;endArrow=open;dashed=1;endSize=5;curved=0;rounded=0;" parent="1" edge="1">
          <mxGeometry x="-1" y="-454" relative="1" as="geometry">
            <mxPoint x="330" y="585" as="sourcePoint" />
            <mxPoint x="200" y="585" as="targetPoint" />
            <mxPoint x="440" y="344" as="offset" />
          </mxGeometry>
        </mxCell>
        <mxCell id="ElBBtvMuGdLbJ0haY5PQ-36" value="&lt;span style=&quot;text-wrap: nowrap;&quot;&gt;&lt;font style=&quot;font-size: 8px;&quot;&gt;&amp;lt;ICollection&amp;lt;Cheep&amp;gt;&amp;gt;&lt;/font&gt;&lt;/span&gt;" style="text;html=1;align=center;verticalAlign=middle;whiteSpace=wrap;rounded=0;" parent="1" vertex="1">
          <mxGeometry x="554" y="350" width="40" as="geometry" />
        </mxCell>
        <mxCell id="ElBBtvMuGdLbJ0haY5PQ-16" value="&lt;span style=&quot;font-size: 8px; text-wrap: nowrap;&quot;&gt;Collection &amp;lt;Cheep&amp;gt;&lt;/span&gt;" style="text;html=1;align=center;verticalAlign=middle;whiteSpace=wrap;rounded=0;" parent="1" vertex="1">
          <mxGeometry x="730" y="310" width="40" as="geometry" />
        </mxCell>
        <mxCell id="ElBBtvMuGdLbJ0haY5PQ-21" value="&lt;font style=&quot;font-size: 9px;&quot;&gt;Rendered Page&amp;nbsp;&lt;/font&gt;" style="text;html=1;align=center;verticalAlign=middle;whiteSpace=wrap;rounded=0;" parent="1" vertex="1">
          <mxGeometry x="185" y="565" width="150" height="20" as="geometry" />
        </mxCell>
      </root>
    </mxGraphModel>
  </diagram>
</mxfile>
